<?xml version="1.0" encoding="UTF-8" standalone="no"?><!DOCTYPE svg PUBLIC "-//W3C//DTD SVG 1.1//EN" "http://www.w3.org/Graphics/SVG/1.1/DTD/svg11.dtd"><svg width="100%" height="100%" viewBox="0 0 242 228" version="1.1" xmlns="http://www.w3.org/2000/svg" xmlns:xlink="http://www.w3.org/1999/xlink" xml:space="preserve" xmlns:serif="http://www.serif.com/" style="fill-rule:evenodd;clip-rule:evenodd;stroke-linejoin:round;stroke-miterlimit:2;"><rect id="ArtBoard1" x="0" y="0" width="241.804" height="227.471" style="fill:none;"/><g><clipPath id="_clip1"><rect x="1.001" y="10.237" width="236.575" height="215.966"/></clipPath><g clip-path="url(#_clip1)"><path d="M114.492,134.261c-13.405,-1.673 -38.956,21.256 -48.864,44.102c-2.548,5.877 -7.285,17.201 -3.73,28.548c0.799,2.548 5.454,16.036 21.814,18.425c0.233,0.034 0.458,0.067 0.691,0.092c11.406,1.423 27.433,-2.49 37.116,-13.171c9.591,-10.582 10.191,-24.62 10.224,-29.965c-0,-1.498 -0.017,-2.947 -0.075,-4.321c-0.508,-14.262 -3.272,-30.305 -11.448,-40.729c-1.707,-2.173 -3.331,-2.565 -5.195,-2.906c-0.175,-0.033 -0.35,-0.058 -0.533,-0.083" style="fill:#f64e85;fill-rule:nonzero;"/><path d="M68.175,80.677c-6.16,-0.766 -16.759,-1.458 -29.356,4.679c-3.072,1.498 -19.465,9.824 -26.775,26.326c-5.112,11.539 -5.479,26.392 3.888,32.87c2.789,1.923 6.169,2.939 9.699,3.38c8.001,0.999 16.727,-0.958 20.865,-1.982c1.673,-0.416 3.288,-0.857 4.845,-1.29c16.06,-4.538 34.777,-11.764 48.739,-22.629c2.914,-2.265 3.822,-3.947 4.721,-5.853c6.41,-13.488 -12.139,-32.155 -35.152,-35.293c-0.457,-0.058 -0.949,-0.125 -1.465,-0.192" style="fill:#f78a4c;fill-rule:nonzero;"/><path d="M158.619,10.024c-11.407,-1.423 -27.433,2.498 -37.116,13.18c-9.6,10.582 -10.2,24.619 -10.224,29.964c-0.017,1.499 0.024,2.939 0.066,4.321c0.516,14.254 3.281,30.306 11.465,40.73c1.699,2.173 3.322,2.573 5.195,2.906c0.175,0.033 0.358,0.058 0.533,0.083c13.404,1.674 38.948,-21.256 48.847,-44.093c2.556,-5.886 7.293,-17.21 3.73,-28.549c-0.799,-2.548 -5.445,-16.044 -21.797,-18.433c-0.233,-0.034 -0.458,-0.067 -0.691,-0.092" style="fill:#a0f0fd;fill-rule:nonzero;"/><path d="M217.381,87.529c-7.992,-0.999 -16.726,0.957 -20.856,1.99c-1.665,0.408 -3.297,0.857 -4.845,1.29c-16.077,4.546 -34.777,11.773 -48.748,22.638c-2.905,2.265 -3.804,3.938 -4.72,5.853c-6.403,13.488 12.147,32.154 35.159,35.284c0.475,0.067 0.991,0.133 1.541,0.2c6.161,0.766 16.726,1.424 29.29,-4.696c3.072,-1.498 19.457,-9.816 26.767,-26.318c5.112,-11.538 5.487,-26.392 -3.88,-32.861c-2.789,-1.923 -6.178,-2.939 -9.708,-3.38Z" style="fill:#8732f8;fill-rule:nonzero;"/><path d="M152.615,157.548c-1.015,-0.125 -2.04,-0.2 -3.064,-0.216c-1.606,-0.025 -2.497,0.391 -3.488,0.916c-7.002,3.704 -10.249,18.491 -6.128,27.999c1.049,2.414 3.147,7.01 9.067,8.892c0.45,0.141 1.557,0.474 3.164,0.674c3.163,0.392 8.242,0.275 13.846,-2.855c5.902,-3.298 12.039,-9.733 12.48,-15.894c0.424,-5.986 -4.604,-9.958 -6.611,-11.398c-0.558,-0.408 -1.116,-0.783 -1.657,-1.141c-4.879,-3.18 -11.031,-6.161 -17.609,-6.977Z" style="fill:#cb4a74;fill-rule:nonzero;"/><path d="M62.948,149.414c-6.136,-0.766 -15.486,1.199 -23.196,5.57c-2.997,1.698 -8.725,5.037 -12.505,11.298c-0.849,1.407 -5.254,9.008 -2.39,15.836c1.582,3.762 5.304,7.118 10.116,7.717c1.291,0.159 2.664,0.125 4.096,-0.158c6.569,-1.282 12.431,-7.277 14.612,-9.633c0.608,-0.657 1.191,-1.307 1.74,-1.932c5.695,-6.485 11.581,-14.553 13.904,-22.037c0.483,-1.557 0.258,-2.307 -0.041,-3.114c-0.742,-1.982 -3.089,-3.148 -6.336,-3.556" style="fill:#d4ed77;fill-rule:nonzero;"/><path d="M90.847,39.639c-3.164,-0.391 -8.243,-0.275 -13.854,2.856c-5.903,3.297 -12.039,9.733 -12.472,15.894c-0.425,5.986 4.604,9.957 6.611,11.406c0.565,0.408 1.123,0.782 1.665,1.132c4.878,3.181 11.04,6.161 17.617,6.985c1.007,0.125 2.023,0.2 3.047,0.217c1.607,0.025 2.506,-0.4 3.497,-0.924c7.002,-3.697 10.24,-18.483 6.119,-27.991c-1.049,-2.415 -3.139,-7.011 -9.066,-8.892c-0.45,-0.142 -1.557,-0.475 -3.156,-0.675" style="fill:#ffd331;fill-rule:nonzero;"/><path d="M208.041,45.609c-1.291,-0.158 -2.664,-0.125 -4.096,0.158c-6.561,1.29 -12.422,7.285 -14.604,9.633c-0.616,0.666 -1.199,1.307 -1.748,1.931c-5.687,6.478 -11.573,14.545 -13.896,22.038c-0.491,1.566 -0.275,2.315 0.033,3.123c0.741,1.981 3.097,3.147 6.345,3.555c6.144,0.766 15.486,-1.199 23.195,-5.578c2.997,-1.699 8.717,-5.029 12.505,-11.298c0.85,-1.407 5.254,-9.001 2.39,-15.836c-1.59,-3.763 -5.304,-7.119 -10.116,-7.718" style="fill:#66a0d1;fill-rule:nonzero;"/></g></g></svg>